<svg id="svg" version="1.1" xmlns="http://www.w3.org/2000/svg" xmlns:xlink="http://www.w3.org/1999/xlink" width="400" height="400" viewBox="0, 0, 400,400"><g id="svgg"><path id="path0" d="M353.136 197.500 C 352.812 197.885,352.499 198.920,352.441 199.800 C 352.382 200.680,352.169 201.571,351.967 201.780 C 351.765 201.989,351.600 202.653,351.600 203.256 C 351.600 203.859,351.420 204.464,351.200 204.600 C 350.980 204.736,350.800 205.276,350.800 205.800 C 350.800 206.324,350.620 206.864,350.400 207.000 C 350.180 207.136,350.000 207.607,350.000 208.047 C 350.000 208.487,349.829 208.742,349.621 208.613 C 349.412 208.484,349.309 208.729,349.392 209.158 C 349.474 209.586,349.285 210.035,348.971 210.156 C 348.657 210.276,348.400 210.724,348.400 211.150 C 348.400 212.059,346.953 214.884,345.921 215.993 C 345.524 216.419,345.200 216.927,345.200 217.124 C 345.200 217.321,344.672 218.034,344.026 218.710 C 343.381 219.385,342.369 220.669,341.777 221.562 C 341.186 222.456,340.543 223.088,340.348 222.968 C 340.154 222.848,339.872 223.068,339.723 223.457 C 339.298 224.565,338.284 225.640,337.300 226.027 C 336.805 226.221,336.400 226.655,336.400 226.990 C 336.400 227.326,336.119 227.600,335.776 227.600 C 335.407 227.600,335.269 227.788,335.438 228.062 C 335.602 228.326,335.549 228.416,335.316 228.271 C 334.882 228.003,331.600 230.991,331.600 231.654 C 331.600 231.870,331.420 231.936,331.200 231.800 C 330.980 231.664,330.800 231.743,330.800 231.976 C 330.800 232.209,330.480 232.400,330.088 232.400 C 329.697 232.400,329.117 232.760,328.800 233.200 C 328.483 233.640,327.922 234.000,327.554 234.000 C 327.187 234.000,326.790 234.250,326.672 234.556 C 326.555 234.862,325.455 235.603,324.229 236.203 C 323.003 236.803,322.000 237.453,322.000 237.647 C 322.000 237.841,321.640 238.000,321.200 238.000 C 320.760 238.000,320.400 238.180,320.400 238.400 C 320.400 238.620,320.203 238.800,319.963 238.800 C 319.723 238.800,319.069 239.160,318.509 239.600 C 317.950 240.040,317.066 240.400,316.546 240.400 C 316.026 240.400,315.599 240.535,315.597 240.700 C 315.593 241.051,313.663 242.000,312.954 242.000 C 312.686 242.000,312.407 242.135,312.333 242.300 C 312.125 242.769,306.954 245.199,306.134 245.213 C 305.730 245.220,305.068 245.477,304.661 245.785 C 304.255 246.093,303.670 246.248,303.361 246.130 C 303.053 246.011,302.800 246.114,302.800 246.357 C 302.800 246.601,302.429 246.800,301.976 246.800 C 301.523 246.800,301.264 246.980,301.400 247.200 C 301.547 247.438,301.071 247.600,300.224 247.600 C 299.441 247.600,298.799 247.735,298.797 247.900 C 298.786 249.114,291.427 251.805,284.000 253.310 C 283.450 253.422,280.849 253.982,278.219 254.556 C 274.685 255.328,272.292 255.600,269.043 255.600 C 260.010 255.600,245.292 257.455,235.390 259.842 C 233.855 260.212,231.633 260.485,230.451 260.449 C 229.269 260.413,228.090 260.559,227.832 260.774 C 227.573 260.988,226.707 261.208,225.907 261.262 C 225.106 261.316,224.541 261.504,224.649 261.680 C 224.758 261.856,224.387 262.000,223.824 262.000 C 223.261 262.000,222.800 262.180,222.800 262.400 C 222.800 262.620,222.260 262.800,221.600 262.800 C 220.940 262.800,220.400 262.980,220.400 263.200 C 220.400 263.420,219.986 263.600,219.480 263.600 C 218.974 263.600,218.318 263.825,218.021 264.100 C 217.590 264.501,217.540 264.499,217.771 264.090 C 217.933 263.804,217.426 263.936,216.618 264.390 C 215.825 264.836,214.830 265.200,214.408 265.200 C 213.985 265.200,213.473 265.498,213.269 265.862 C 213.023 266.302,212.652 266.429,212.162 266.241 C 211.756 266.085,211.550 266.084,211.704 266.237 C 211.968 266.501,208.651 268.400,207.928 268.400 C 207.370 268.400,203.810 270.139,203.667 270.481 C 203.593 270.657,203.188 270.800,202.767 270.800 C 202.345 270.800,202.000 270.936,202.000 271.102 C 202.000 271.269,201.415 271.658,200.700 271.968 C 199.985 272.277,198.680 273.001,197.800 273.577 C 196.920 274.153,195.705 274.874,195.100 275.180 C 194.495 275.485,194.000 275.885,194.000 276.068 C 194.000 276.250,193.752 276.400,193.449 276.400 C 193.146 276.400,192.676 276.668,192.404 276.996 C 192.132 277.323,191.735 277.484,191.523 277.352 C 191.310 277.221,190.870 277.493,190.545 277.957 C 190.220 278.420,189.701 278.800,189.391 278.800 C 189.082 278.800,188.635 279.160,188.400 279.600 C 188.165 280.040,187.799 280.400,187.587 280.400 C 187.375 280.400,186.542 281.022,185.735 281.783 C 184.929 282.544,184.131 283.081,183.962 282.976 C 183.793 282.872,183.417 283.115,183.127 283.516 C 182.837 283.918,181.745 284.830,180.700 285.542 C 179.655 286.255,178.800 286.971,178.800 287.133 C 178.800 287.295,178.294 287.726,177.676 288.092 C 176.263 288.926,171.766 293.292,171.900 293.698 C 171.955 293.864,171.796 294.000,171.547 294.000 C 170.997 294.000,167.998 296.979,167.017 298.500 C 166.627 299.105,166.059 299.600,165.754 299.600 C 165.449 299.600,165.200 299.865,165.200 300.188 C 165.200 300.511,164.660 301.175,164.000 301.663 C 163.340 302.151,162.800 302.711,162.800 302.907 C 162.800 303.102,162.080 303.976,161.200 304.847 C 160.320 305.718,159.597 306.559,159.593 306.715 C 159.589 306.872,158.689 307.964,157.593 309.142 C 156.497 310.321,155.600 311.534,155.600 311.839 C 155.600 312.144,155.240 312.618,154.800 312.893 C 154.360 313.168,154.000 313.630,154.000 313.920 C 154.000 314.210,153.822 314.337,153.605 314.203 C 153.387 314.068,153.303 314.204,153.419 314.504 C 153.534 314.805,153.248 315.395,152.783 315.815 C 152.318 316.236,151.602 317.305,151.192 318.190 C 150.781 319.076,149.631 320.879,148.636 322.197 C 147.640 323.515,146.415 325.405,145.913 326.397 C 145.411 327.389,144.865 328.260,144.700 328.333 C 144.535 328.407,144.400 328.812,144.400 329.233 C 144.400 329.655,144.265 330.001,144.100 330.003 C 143.789 330.006,142.800 331.903,142.800 332.496 C 142.800 332.682,142.440 333.220,142.000 333.692 C 141.560 334.164,141.200 334.787,141.200 335.075 C 141.200 335.364,141.020 335.600,140.800 335.600 C 140.580 335.600,140.400 335.849,140.400 336.154 C 140.400 336.459,140.139 337.211,139.820 337.826 C 139.502 338.440,139.351 339.136,139.485 339.371 C 139.619 339.607,139.582 339.668,139.404 339.506 C 139.051 339.187,138.000 340.943,138.000 341.851 C 138.000 342.159,137.839 342.723,137.642 343.105 C 136.201 345.901,134.819 349.162,134.719 350.000 C 134.654 350.550,134.285 351.349,133.900 351.775 C 133.515 352.202,133.200 352.866,133.200 353.252 C 133.200 353.637,133.040 354.052,132.844 354.173 C 132.649 354.294,132.376 355.069,132.239 355.896 C 131.729 358.968,131.736 359.007,132.723 358.901 C 133.362 358.832,133.560 358.955,133.365 359.301 C 133.140 359.699,133.192 359.699,133.621 359.300 C 133.918 359.025,134.484 358.800,134.880 358.800 C 135.276 358.800,135.600 358.620,135.600 358.400 C 135.600 358.180,136.320 358.000,137.200 358.000 C 138.080 358.000,138.800 357.820,138.800 357.600 C 138.800 357.380,139.160 357.200,139.600 357.200 C 140.040 357.200,140.400 357.020,140.400 356.800 C 140.400 356.580,141.109 356.400,141.976 356.400 C 142.843 356.400,143.664 356.220,143.800 356.000 C 143.936 355.780,144.667 355.600,145.424 355.600 C 146.181 355.600,146.800 355.420,146.800 355.200 C 146.800 354.980,147.149 354.800,147.576 354.800 C 148.003 354.800,148.464 354.620,148.600 354.400 C 148.736 354.180,149.287 354.000,149.824 354.000 C 150.361 354.000,150.800 353.820,150.800 353.600 C 150.800 353.380,151.329 353.200,151.976 353.200 C 152.623 353.200,153.264 353.020,153.400 352.800 C 153.536 352.580,154.166 352.400,154.800 352.400 C 155.434 352.400,156.064 352.220,156.200 352.000 C 156.336 351.780,157.056 351.600,157.800 351.600 C 158.544 351.600,159.264 351.420,159.400 351.200 C 159.536 350.980,159.963 350.800,160.348 350.800 C 160.734 350.800,161.795 350.440,162.706 350.000 C 163.616 349.560,164.604 349.200,164.901 349.200 C 165.197 349.200,165.631 349.009,165.865 348.775 C 166.099 348.541,166.861 348.333,167.559 348.314 C 168.257 348.294,168.923 348.125,169.038 347.939 C 169.153 347.752,169.582 347.600,169.990 347.600 C 170.399 347.600,170.796 347.412,170.873 347.182 C 170.949 346.952,171.459 346.752,172.006 346.736 C 172.959 346.709,174.211 346.308,175.695 345.553 C 176.077 345.359,176.752 345.200,177.195 345.200 C 177.638 345.200,178.000 345.020,178.000 344.800 C 178.000 344.580,178.540 344.400,179.200 344.400 C 179.860 344.400,180.400 344.220,180.400 344.000 C 180.400 343.780,181.008 343.600,181.751 343.600 C 182.494 343.600,183.324 343.332,183.596 343.004 C 183.868 342.677,184.248 342.506,184.440 342.625 C 184.632 342.744,185.186 342.472,185.670 342.020 C 186.155 341.569,187.046 341.200,187.652 341.200 C 188.257 341.200,188.864 341.020,189.000 340.800 C 189.136 340.580,189.777 340.400,190.424 340.400 C 191.071 340.400,191.600 340.256,191.600 340.080 C 191.600 339.706,193.954 338.800,194.928 338.800 C 195.298 338.800,195.600 338.620,195.600 338.400 C 195.600 338.180,195.949 338.000,196.376 338.000 C 196.803 338.000,197.264 337.820,197.400 337.600 C 197.536 337.380,198.267 337.200,199.024 337.200 C 199.781 337.200,200.400 337.062,200.400 336.893 C 200.400 336.510,204.866 334.556,205.363 334.721 C 205.563 334.788,205.833 334.698,205.963 334.521 C 206.347 334.000,207.941 333.200,208.595 333.200 C 208.928 333.200,209.200 333.020,209.200 332.800 C 209.200 332.580,209.639 332.400,210.176 332.400 C 210.713 332.400,211.264 332.220,211.400 332.000 C 211.536 331.780,211.997 331.600,212.424 331.600 C 212.851 331.600,213.200 331.420,213.200 331.200 C 213.200 330.980,213.577 330.800,214.038 330.800 C 214.499 330.800,215.358 330.457,215.945 330.039 C 216.533 329.620,217.371 329.215,217.807 329.139 C 218.243 329.062,218.840 328.773,219.132 328.496 C 219.425 328.219,219.830 328.095,220.032 328.220 C 220.235 328.345,220.400 328.257,220.400 328.024 C 220.400 327.791,220.672 327.600,221.005 327.600 C 221.338 327.600,221.923 327.436,222.305 327.235 C 222.687 327.034,223.990 326.400,225.200 325.826 C 226.410 325.252,228.170 324.336,229.111 323.791 C 230.052 323.246,231.177 322.800,231.611 322.800 C 232.045 322.800,232.400 322.620,232.400 322.400 C 232.400 322.180,232.648 322.000,232.951 322.000 C 233.254 322.000,233.730 321.726,234.008 321.390 C 234.286 321.055,234.596 320.862,234.695 320.962 C 234.795 321.062,235.495 320.796,236.250 320.372 C 237.006 319.947,237.889 319.600,238.212 319.600 C 238.535 319.600,238.800 319.420,238.800 319.200 C 238.800 318.980,239.025 318.796,239.300 318.791 C 239.575 318.786,240.250 318.430,240.800 318.000 C 241.350 317.570,242.087 317.214,242.438 317.209 C 242.789 317.204,243.402 316.840,243.800 316.400 C 244.198 315.960,244.772 315.600,245.075 315.600 C 245.377 315.600,245.729 315.330,245.855 315.000 C 245.982 314.670,246.323 314.400,246.612 314.400 C 246.902 314.400,247.673 313.950,248.327 313.400 C 248.981 312.850,249.805 312.400,250.158 312.400 C 250.511 312.400,250.800 312.220,250.800 312.000 C 250.800 311.780,251.120 311.600,251.512 311.600 C 251.903 311.600,252.483 311.240,252.800 310.800 C 253.117 310.360,253.697 310.000,254.088 310.000 C 254.480 310.000,254.800 309.825,254.800 309.610 C 254.800 309.396,255.333 308.945,255.984 308.608 C 256.635 308.272,257.616 307.547,258.165 306.998 C 258.714 306.449,259.318 306.000,259.506 306.000 C 259.695 306.000,260.255 305.622,260.751 305.160 C 261.247 304.698,261.750 304.417,261.869 304.536 C 262.143 304.809,260.175 306.800,259.630 306.800 C 259.130 306.800,257.362 309.163,257.500 309.648 C 257.555 309.842,257.234 310.000,256.787 310.000 C 256.341 310.000,255.858 310.315,255.715 310.700 C 255.443 311.433,253.606 313.199,253.115 313.200 C 252.959 313.200,252.118 313.920,251.247 314.800 C 250.376 315.680,249.514 316.402,249.331 316.404 C 249.149 316.407,248.125 317.215,247.056 318.201 C 245.987 319.187,244.925 319.877,244.695 319.735 C 244.451 319.584,244.396 319.669,244.562 319.938 C 244.719 320.192,244.672 320.400,244.458 320.400 C 244.244 320.400,243.415 321.035,242.615 321.812 C 241.816 322.588,240.962 323.100,240.719 322.950 C 240.452 322.785,240.389 322.859,240.562 323.138 C 240.731 323.412,240.593 323.600,240.224 323.600 C 239.881 323.600,239.600 323.780,239.600 324.000 C 239.600 324.220,239.328 324.400,238.996 324.400 C 238.664 324.400,237.828 324.940,237.137 325.600 C 236.446 326.260,235.627 326.800,235.317 326.800 C 235.007 326.800,234.864 326.980,235.000 327.200 C 235.136 327.420,234.911 327.600,234.499 327.600 C 234.088 327.600,233.402 327.921,232.975 328.313 C 232.549 328.705,231.533 329.340,230.719 329.723 C 229.904 330.106,229.004 330.641,228.719 330.912 C 228.433 331.183,227.345 331.837,226.300 332.365 C 225.255 332.894,224.400 333.434,224.400 333.565 C 224.400 333.697,223.815 334.040,223.100 334.329 C 222.385 334.617,221.440 335.049,221.000 335.289 C 220.560 335.529,219.840 335.922,219.400 336.162 C 218.960 336.403,218.285 336.853,217.900 337.162 C 217.515 337.471,217.200 337.594,217.200 337.435 C 217.200 337.276,216.677 337.518,216.038 337.973 C 215.399 338.428,214.499 338.800,214.038 338.800 C 213.577 338.800,213.199 338.935,213.197 339.100 C 213.193 339.451,211.263 340.400,210.554 340.400 C 210.286 340.400,210.007 340.536,209.933 340.702 C 209.774 341.063,204.778 343.611,203.968 343.745 C 203.655 343.796,203.019 344.048,202.553 344.305 C 202.087 344.562,201.563 344.643,201.388 344.486 C 201.214 344.329,201.201 344.425,201.359 344.700 C 201.537 345.009,201.409 345.200,201.024 345.200 C 200.681 345.200,200.400 345.380,200.400 345.600 C 200.400 345.820,199.860 346.000,199.200 346.000 C 198.540 346.000,198.000 346.180,198.000 346.400 C 198.000 346.620,197.730 346.800,197.400 346.800 C 197.070 346.800,196.800 346.980,196.800 347.200 C 196.800 347.420,196.609 347.600,196.376 347.600 C 196.143 347.600,196.057 347.431,196.185 347.225 C 196.377 346.914,194.029 347.951,190.705 349.646 C 190.323 349.841,189.648 350.000,189.205 350.000 C 188.762 350.000,188.400 350.180,188.400 350.400 C 188.400 350.620,188.051 350.800,187.624 350.800 C 187.197 350.800,186.736 350.980,186.600 351.200 C 186.464 351.420,185.913 351.600,185.376 351.600 C 184.839 351.600,184.400 351.780,184.400 352.000 C 184.400 352.220,184.051 352.400,183.624 352.400 C 183.197 352.400,182.736 352.580,182.600 352.800 C 182.464 353.020,181.845 353.200,181.225 353.200 C 180.605 353.200,179.883 353.459,179.620 353.776 C 179.357 354.093,178.885 354.254,178.571 354.133 C 178.257 354.013,178.000 354.114,178.000 354.357 C 178.000 354.601,177.651 354.800,177.224 354.800 C 176.797 354.800,176.336 354.980,176.200 355.200 C 176.064 355.420,175.434 355.600,174.800 355.600 C 174.166 355.600,173.536 355.780,173.400 356.000 C 173.264 356.220,172.623 356.400,171.976 356.400 C 171.329 356.400,170.800 356.580,170.800 356.800 C 170.800 357.020,170.260 357.200,169.600 357.200 C 168.940 357.200,168.400 357.380,168.400 357.600 C 168.400 357.820,168.074 358.000,167.675 358.000 C 167.276 358.000,166.179 358.372,165.237 358.828 C 164.295 359.283,163.181 359.681,162.762 359.713 C 162.343 359.744,162.000 359.912,162.000 360.085 C 162.000 360.258,161.460 360.400,160.800 360.400 C 160.140 360.400,159.600 360.580,159.600 360.800 C 159.600 361.020,159.096 361.200,158.480 361.200 C 157.864 361.200,157.169 361.391,156.935 361.625 C 156.701 361.859,155.928 362.067,155.218 362.087 C 154.508 362.107,153.275 362.456,152.479 362.862 C 151.682 363.268,150.259 363.600,149.315 363.600 C 148.372 363.600,147.600 363.780,147.600 364.000 C 147.600 364.220,147.161 364.400,146.624 364.400 C 146.087 364.400,145.536 364.580,145.400 364.800 C 145.264 365.020,144.659 365.200,144.056 365.200 C 143.453 365.200,142.789 365.365,142.580 365.566 C 142.371 365.768,141.750 365.993,141.200 366.066 C 139.555 366.286,139.975 367.370,141.800 367.614 C 142.680 367.732,143.595 367.949,143.834 368.097 C 144.073 368.245,145.918 368.396,147.934 368.432 C 149.950 368.469,151.600 368.657,151.600 368.850 C 151.600 369.042,153.479 369.200,155.776 369.200 C 158.073 369.200,160.053 369.362,160.176 369.561 C 160.483 370.057,197.079 370.150,197.261 369.655 C 197.337 369.446,199.110 369.166,201.200 369.033 C 209.050 368.532,211.010 368.328,211.380 367.969 C 211.589 367.766,212.969 367.600,214.447 367.600 C 215.924 367.600,217.193 367.429,217.267 367.220 C 217.340 367.011,218.177 366.795,219.126 366.740 C 220.075 366.685,220.940 366.496,221.049 366.320 C 221.158 366.144,222.036 366.000,223.000 366.000 C 223.964 366.000,224.852 365.840,224.973 365.644 C 225.185 365.301,226.411 365.022,229.800 364.544 C 230.680 364.420,231.571 364.156,231.780 363.959 C 231.989 363.762,232.563 363.600,233.056 363.600 C 233.549 363.600,234.064 363.420,234.200 363.200 C 234.336 362.980,235.112 362.794,235.924 362.787 C 236.736 362.780,237.742 362.516,238.159 362.200 C 238.576 361.884,239.060 361.713,239.233 361.820 C 239.407 361.928,240.195 361.652,240.986 361.208 C 241.777 360.763,242.948 360.400,243.589 360.400 C 244.229 360.400,244.864 360.220,245.000 360.000 C 245.136 359.780,245.694 359.600,246.240 359.600 C 246.787 359.600,247.620 359.240,248.092 358.800 C 248.564 358.360,249.271 358.000,249.663 358.000 C 250.055 358.000,251.017 357.640,251.800 357.200 C 252.583 356.760,253.579 356.400,254.012 356.400 C 254.445 356.400,254.800 356.220,254.800 356.000 C 254.800 355.780,255.155 355.600,255.588 355.600 C 256.021 355.600,257.017 355.240,257.800 354.800 C 258.583 354.360,259.461 354.000,259.750 354.000 C 260.039 354.000,260.602 353.640,261.000 353.200 C 261.398 352.760,262.020 352.400,262.382 352.400 C 262.744 352.400,263.282 352.175,263.579 351.900 C 264.012 351.498,264.059 351.504,263.817 351.930 C 263.568 352.368,263.661 352.369,264.358 351.933 C 264.821 351.644,265.200 351.271,265.200 351.104 C 265.200 350.937,265.532 350.800,265.938 350.800 C 266.344 350.800,267.002 350.440,267.400 350.000 C 267.798 349.560,268.422 349.200,268.787 349.200 C 269.151 349.200,269.836 348.840,270.308 348.400 C 270.780 347.960,271.528 347.545,271.971 347.477 C 272.413 347.410,273.319 346.870,273.984 346.277 C 274.649 345.685,275.266 345.200,275.356 345.200 C 275.791 345.200,281.082 341.785,281.647 341.139 C 282.003 340.733,282.496 340.400,282.743 340.400 C 282.991 340.400,283.709 339.860,284.340 339.200 C 284.971 338.540,285.668 338.000,285.889 338.000 C 286.110 338.000,286.757 337.534,287.326 336.965 C 287.896 336.395,288.548 336.044,288.776 336.185 C 289.033 336.344,289.091 336.180,288.927 335.755 C 288.766 335.335,288.823 335.167,289.074 335.322 C 289.299 335.461,290.544 334.555,291.842 333.309 C 293.139 332.063,294.239 331.123,294.288 331.221 C 294.430 331.511,301.200 324.800,301.200 324.369 C 301.200 324.152,301.515 323.856,301.900 323.710 C 302.789 323.373,303.373 322.789,303.710 321.900 C 303.856 321.515,304.251 321.200,304.587 321.200 C 304.924 321.200,305.200 321.045,305.200 320.856 C 305.200 320.516,306.711 318.731,309.309 316.000 C 310.042 315.230,311.262 313.790,312.021 312.800 C 312.779 311.811,313.715 310.709,314.100 310.353 C 314.485 309.997,314.800 309.422,314.800 309.076 C 314.800 308.729,315.159 308.194,315.597 307.887 C 316.036 307.580,316.276 307.209,316.131 307.064 C 315.986 306.919,316.124 306.800,316.439 306.800 C 316.754 306.800,317.316 306.125,317.688 305.300 C 318.060 304.475,319.002 303.082,319.782 302.204 C 320.562 301.327,321.200 300.298,321.200 299.918 C 321.200 299.539,321.522 299.056,321.916 298.845 C 322.310 298.634,322.885 297.953,323.196 297.331 C 323.506 296.709,324.214 295.574,324.770 294.809 C 325.325 294.044,325.813 293.195,325.852 292.923 C 325.892 292.651,326.302 291.900,326.762 291.253 C 327.223 290.606,327.600 289.900,327.600 289.684 C 327.600 288.977,328.673 287.206,328.939 287.473 C 329.083 287.616,329.200 287.343,329.200 286.867 C 329.200 286.390,329.335 285.999,329.500 285.997 C 329.814 285.994,330.800 284.094,330.800 283.492 C 330.800 283.301,331.340 282.359,332.000 281.400 C 332.660 280.441,333.200 279.384,333.200 279.052 C 333.200 278.719,333.380 278.336,333.600 278.200 C 333.820 278.064,334.000 277.686,334.000 277.360 C 334.000 277.033,334.360 276.380,334.800 275.908 C 335.240 275.436,335.600 274.721,335.600 274.319 C 335.600 273.918,335.757 273.277,335.950 272.895 C 337.448 269.920,338.000 268.647,338.000 268.162 C 338.000 267.853,338.180 267.600,338.400 267.600 C 338.620 267.600,338.800 267.139,338.800 266.576 C 338.800 266.013,338.942 265.640,339.115 265.748 C 339.288 265.855,339.470 265.468,339.517 264.889 C 339.565 264.309,339.784 263.656,340.002 263.438 C 340.221 263.219,340.400 262.536,340.400 261.920 C 340.400 261.304,340.580 260.800,340.800 260.800 C 341.020 260.800,341.200 260.470,341.200 260.067 C 341.200 259.663,341.325 259.208,341.478 259.055 C 341.631 258.902,341.801 258.475,341.855 258.106 C 341.947 257.479,342.405 256.359,343.247 254.705 C 343.441 254.323,343.600 253.569,343.600 253.029 C 343.600 252.489,343.780 251.936,344.000 251.800 C 344.220 251.664,344.400 251.201,344.400 250.771 C 344.400 250.341,344.580 249.632,344.800 249.195 C 345.020 248.758,345.380 248.042,345.600 247.605 C 345.820 247.168,346.000 246.279,346.000 245.629 C 346.000 244.979,346.151 244.354,346.335 244.240 C 346.519 244.127,346.695 243.352,346.726 242.520 C 346.757 241.687,346.967 240.944,347.191 240.870 C 347.416 240.795,347.600 240.219,347.600 239.590 C 347.600 238.962,347.780 238.336,348.000 238.200 C 348.220 238.064,348.400 237.164,348.400 236.200 C 348.400 235.236,348.580 234.336,348.800 234.200 C 349.020 234.064,349.200 233.459,349.200 232.856 C 349.200 232.253,349.362 231.589,349.559 231.380 C 349.756 231.171,350.017 230.280,350.139 229.400 C 350.260 228.520,350.557 226.810,350.798 225.600 C 351.628 221.438,352.053 218.594,352.262 215.800 C 352.377 214.260,352.607 212.820,352.772 212.600 C 352.937 212.380,353.116 211.210,353.171 210.000 C 353.225 208.790,353.412 207.620,353.586 207.400 C 353.760 207.180,353.931 205.290,353.965 203.200 C 353.999 201.110,354.131 198.815,354.258 198.100 C 354.513 196.666,354.046 196.417,353.136 197.500 " stroke="none" fill="#6cab34" fill-rule="evenodd"></path><path id="path1" d="M76.417 187.569 C 76.190 187.992,75.779 188.582,75.503 188.881 C 74.814 189.625,73.599 191.649,73.329 192.500 C 73.207 192.885,72.948 193.200,72.753 193.200 C 72.559 193.200,72.400 193.524,72.400 193.920 C 72.400 194.316,72.230 194.811,72.022 195.020 C 71.418 195.627,68.400 201.656,68.400 202.255 C 68.400 202.555,68.220 202.800,68.000 202.800 C 67.780 202.800,67.600 203.160,67.600 203.600 C 67.600 204.040,67.420 204.400,67.200 204.400 C 66.980 204.400,66.800 204.749,66.800 205.176 C 66.800 205.603,66.620 206.064,66.400 206.200 C 66.180 206.336,66.000 206.709,66.000 207.028 C 66.000 207.347,65.622 208.462,65.160 209.504 C 64.698 210.547,64.137 211.850,63.913 212.400 C 63.690 212.950,63.348 213.713,63.153 214.095 C 62.959 214.477,62.800 215.064,62.800 215.400 C 62.800 215.736,62.638 216.323,62.439 216.705 C 62.240 217.087,61.856 218.210,61.585 219.200 C 60.704 222.417,60.295 223.785,59.972 224.600 C 59.797 225.040,59.563 225.940,59.452 226.600 C 59.340 227.260,59.041 228.610,58.786 229.600 C 58.531 230.590,58.234 232.300,58.125 233.400 C 58.015 234.500,57.763 235.571,57.563 235.780 C 57.363 235.989,57.200 237.216,57.200 238.506 C 57.200 239.797,57.036 241.160,56.834 241.536 C 56.136 242.841,56.113 266.000,56.810 266.000 C 56.987 266.000,57.229 267.125,57.348 268.500 C 57.724 272.832,58.066 274.987,58.439 275.380 C 58.637 275.589,58.800 276.253,58.800 276.856 C 58.800 277.459,58.980 278.064,59.200 278.200 C 59.420 278.336,59.600 278.941,59.600 279.544 C 59.600 280.147,59.753 280.811,59.941 281.020 C 60.129 281.229,60.517 282.300,60.805 283.400 C 61.092 284.500,61.679 286.210,62.110 287.200 C 62.541 288.190,63.142 289.585,63.447 290.300 C 66.017 296.338,66.050 296.406,67.214 298.200 C 67.786 299.080,68.546 300.434,68.903 301.210 C 69.260 301.985,70.013 303.155,70.575 303.810 C 71.138 304.464,71.599 305.225,71.600 305.500 C 71.600 305.775,71.780 306.000,72.000 306.000 C 72.220 306.000,72.400 306.185,72.400 306.411 C 72.400 306.874,76.369 312.126,76.875 312.333 C 77.054 312.407,77.200 312.634,77.200 312.838 C 77.200 313.321,79.135 315.436,84.812 321.154 C 90.746 327.133,93.278 329.412,96.400 331.586 C 97.170 332.123,97.890 332.660,98.000 332.781 C 98.526 333.357,101.766 335.704,105.200 337.996 C 107.290 339.391,109.090 340.652,109.200 340.798 C 109.310 340.944,109.985 341.319,110.700 341.630 C 111.415 341.941,112.000 342.331,112.000 342.498 C 112.000 342.664,112.193 342.800,112.428 342.800 C 112.663 342.800,113.641 343.340,114.600 344.000 C 115.559 344.660,116.537 345.200,116.772 345.200 C 117.007 345.200,117.200 345.338,117.200 345.506 C 117.200 346.151,120.503 347.280,120.833 346.747 C 121.097 346.320,120.059 344.320,119.200 343.600 C 119.069 343.490,118.529 342.770,118.000 342.000 C 117.471 341.230,116.714 340.309,116.319 339.953 C 115.924 339.597,115.599 339.147,115.598 338.953 C 115.597 338.759,115.057 338.025,114.398 337.322 C 113.739 336.619,113.200 335.882,113.200 335.684 C 113.200 335.486,112.840 334.998,112.400 334.600 C 111.960 334.202,111.599 333.679,111.598 333.438 C 111.597 333.197,111.057 332.425,110.398 331.722 C 109.739 331.019,109.200 330.353,109.200 330.242 C 109.200 330.131,108.615 329.203,107.900 328.179 C 107.185 327.156,106.420 326.025,106.200 325.666 C 105.980 325.307,105.305 324.258,104.700 323.335 C 104.095 322.411,103.600 321.508,103.599 321.328 C 103.599 321.148,103.059 320.370,102.400 319.600 C 101.741 318.830,101.201 317.919,101.201 317.575 C 101.200 317.232,100.840 316.564,100.400 316.092 C 99.960 315.620,99.600 314.956,99.600 314.617 C 99.600 314.278,99.462 314.000,99.294 314.000 C 99.126 314.000,98.675 313.325,98.292 312.500 C 97.535 310.869,96.521 309.054,95.470 307.450 C 95.101 306.888,94.800 306.152,94.800 305.814 C 94.800 305.476,94.620 305.200,94.400 305.200 C 94.180 305.200,94.000 304.869,94.000 304.464 C 94.000 304.059,93.114 301.987,92.030 299.859 C 90.947 297.731,90.245 296.104,90.472 296.244 C 90.698 296.384,90.574 296.026,90.195 295.449 C 89.817 294.872,89.664 294.397,89.854 294.394 C 90.044 294.391,90.016 294.256,89.792 294.094 C 89.225 293.686,88.400 291.722,88.400 290.781 C 88.400 290.352,88.240 290.000,88.045 290.000 C 87.710 290.000,87.458 289.112,86.937 286.100 C 86.814 285.385,86.571 284.800,86.398 284.800 C 86.225 284.800,85.987 284.125,85.868 283.300 C 85.749 282.475,85.452 280.900,85.208 279.800 C 84.302 275.716,84.274 275.475,84.746 275.767 C 84.996 275.921,85.200 276.386,85.200 276.800 C 85.200 277.214,85.380 277.664,85.600 277.800 C 85.820 277.936,86.000 278.451,86.000 278.944 C 86.000 279.437,86.175 280.015,86.389 280.229 C 86.602 280.442,86.836 280.973,86.907 281.409 C 86.979 281.844,87.949 284.090,89.063 286.400 C 90.177 288.710,91.420 291.320,91.824 292.200 C 92.228 293.080,92.658 293.890,92.779 294.000 C 93.251 294.427,94.000 296.019,94.000 296.595 C 94.000 296.928,94.180 297.200,94.400 297.200 C 94.620 297.200,94.800 297.560,94.800 298.000 C 94.800 298.440,94.959 298.800,95.153 298.800 C 95.348 298.800,95.607 299.115,95.729 299.500 C 95.949 300.196,97.213 302.418,97.605 302.800 C 97.718 302.910,98.242 303.855,98.768 304.900 C 99.295 305.945,99.877 306.800,100.063 306.800 C 100.248 306.800,100.400 307.145,100.400 307.567 C 100.400 307.988,100.545 308.393,100.723 308.467 C 101.098 308.621,103.169 311.694,103.976 313.293 C 104.280 313.895,104.814 314.705,105.164 315.093 C 105.514 315.482,106.055 316.295,106.368 316.900 C 106.680 317.505,107.085 318.000,107.268 318.000 C 107.450 318.000,107.600 318.294,107.600 318.653 C 107.600 319.012,107.916 319.597,108.303 319.953 C 108.689 320.309,109.260 321.095,109.570 321.700 C 109.881 322.305,110.285 322.800,110.468 322.800 C 110.650 322.800,110.800 323.036,110.800 323.325 C 110.800 323.613,111.115 324.208,111.500 324.646 C 111.885 325.085,112.380 325.725,112.600 326.068 C 113.808 327.955,117.425 333.073,117.862 333.515 C 118.143 333.798,118.687 334.563,119.072 335.215 C 119.457 335.867,119.914 336.400,120.086 336.400 C 120.259 336.400,120.400 336.643,120.400 336.941 C 120.400 337.238,120.940 338.046,121.600 338.737 C 122.260 339.428,122.800 340.141,122.800 340.322 C 122.800 340.502,123.340 341.168,124.000 341.800 C 124.660 342.432,125.200 343.180,125.200 343.461 C 125.200 343.742,125.560 344.165,126.000 344.400 C 126.440 344.635,126.800 345.092,126.800 345.414 C 126.800 346.129,128.151 346.191,128.697 345.500 C 129.103 344.987,129.493 343.594,129.872 341.300 C 129.991 340.585,130.230 340.000,130.403 340.000 C 130.701 340.000,130.820 339.387,131.432 334.700 C 131.569 333.655,131.813 332.800,131.975 332.800 C 132.136 332.800,132.309 331.686,132.358 330.323 C 132.407 328.961,132.567 327.656,132.714 327.423 C 132.935 327.073,133.532 319.747,133.645 316.000 C 133.728 313.294,133.053 302.949,132.771 302.588 C 132.593 302.362,132.407 301.147,132.356 299.888 C 132.305 298.630,132.132 297.600,131.972 297.600 C 131.812 297.600,131.584 296.835,131.466 295.900 C 131.118 293.142,130.770 291.453,130.374 290.600 C 130.169 290.160,129.938 289.440,129.861 289.000 C 129.691 288.033,129.272 286.844,128.771 285.905 C 128.567 285.523,128.400 284.848,128.400 284.405 C 128.400 283.962,128.220 283.600,128.000 283.600 C 127.780 283.600,127.600 283.328,127.600 282.996 C 127.600 281.990,124.770 275.978,122.519 272.200 C 121.994 271.320,121.462 270.285,121.336 269.900 C 121.210 269.515,120.948 269.200,120.753 269.200 C 120.559 269.200,120.400 268.855,120.400 268.433 C 120.400 268.012,120.265 267.607,120.100 267.533 C 119.629 267.324,117.200 264.090,117.200 263.672 C 117.200 263.466,116.903 263.051,116.539 262.749 C 116.176 262.448,115.209 261.301,114.392 260.200 C 112.286 257.366,105.078 250.270,101.185 247.200 C 97.917 244.623,92.406 239.403,92.394 238.875 C 92.390 238.724,91.490 237.619,90.394 236.421 C 89.297 235.222,88.400 234.073,88.400 233.868 C 88.400 233.662,88.074 233.203,87.675 232.847 C 86.727 232.001,84.400 228.577,84.400 228.028 C 84.400 227.793,84.220 227.600,84.000 227.600 C 83.780 227.600,83.600 227.240,83.600 226.800 C 83.600 226.360,83.441 226.000,83.247 226.000 C 83.052 226.000,82.790 225.685,82.664 225.300 C 82.538 224.915,81.887 223.700,81.217 222.600 C 79.789 220.257,78.800 218.118,78.800 217.375 C 78.800 217.085,78.620 216.736,78.400 216.600 C 78.180 216.464,78.000 216.003,78.000 215.576 C 78.000 215.149,77.820 214.800,77.600 214.800 C 77.380 214.800,77.200 214.361,77.200 213.824 C 77.200 213.287,77.020 212.736,76.800 212.600 C 76.580 212.464,76.400 211.733,76.400 210.976 C 76.400 210.219,76.220 209.600,76.000 209.600 C 75.780 209.600,75.600 208.891,75.600 208.024 C 75.600 207.157,75.439 206.348,75.243 206.226 C 74.725 205.906,74.668 196.129,75.183 195.811 C 75.412 195.669,75.600 194.854,75.600 194.000 C 75.600 193.146,75.780 192.336,76.000 192.200 C 76.220 192.064,76.400 191.685,76.400 191.357 C 76.400 191.029,76.755 190.026,77.190 189.126 C 77.952 187.550,77.952 186.800,77.190 186.800 C 76.991 186.800,76.643 187.146,76.417 187.569 M291.600 250.800 C 290.805 251.314,291.804 251.314,293.000 250.800 L 293.800 250.456 293.000 250.434 C 292.560 250.422,291.930 250.587,291.600 250.800 M287.453 251.830 C 286.382 252.122,285.392 252.481,285.253 252.627 C 284.952 252.944,287.136 252.501,289.391 251.788 C 291.516 251.116,289.946 251.150,287.453 251.830 M282.000 253.200 C 281.236 253.694,282.058 253.694,283.600 253.200 L 284.600 252.880 283.600 252.846 C 283.050 252.827,282.330 252.987,282.000 253.200 M278.600 254.000 L 277.800 254.344 278.600 254.344 C 279.040 254.344,279.760 254.189,280.200 254.000 L 281.000 253.656 280.200 253.656 C 279.760 253.656,279.040 253.811,278.600 254.000 M274.400 254.800 L 273.400 255.120 274.400 255.120 C 274.950 255.120,275.850 254.976,276.400 254.800 L 277.400 254.480 276.400 254.480 C 275.850 254.480,274.950 254.624,274.400 254.800 M259.000 255.606 C 258.120 255.767,259.740 255.806,262.600 255.694 C 265.460 255.581,267.875 255.424,267.967 255.345 C 268.267 255.084,260.640 255.306,259.000 255.606 M251.400 256.400 C 249.634 256.849,251.645 256.869,253.800 256.423 L 255.400 256.092 254.000 256.093 C 253.230 256.094,252.060 256.232,251.400 256.400 M245.800 257.200 L 245.000 257.544 245.800 257.549 C 246.240 257.552,247.320 257.405,248.200 257.223 L 249.800 256.892 248.200 256.874 C 247.320 256.864,246.240 257.011,245.800 257.200 M241.400 258.000 L 240.600 258.344 241.400 258.325 C 241.840 258.314,242.740 258.168,243.400 258.000 L 244.600 257.695 243.400 257.675 C 242.740 257.665,241.840 257.811,241.400 258.000 M237.400 258.800 L 236.600 259.144 237.400 259.132 C 237.840 259.126,238.650 258.976,239.200 258.800 L 240.200 258.480 239.200 258.468 C 238.650 258.462,237.840 258.611,237.400 258.800 M234.200 259.600 L 233.400 259.944 234.200 259.944 C 234.640 259.944,235.360 259.789,235.800 259.600 L 236.600 259.256 235.800 259.256 C 235.360 259.256,234.640 259.411,234.200 259.600 M231.105 260.283 C 231.602 260.379,232.322 260.375,232.705 260.275 C 233.087 260.175,232.680 260.096,231.800 260.101 C 230.920 260.105,230.607 260.187,231.105 260.283 " stroke="none" fill="#649c44" fill-rule="evenodd"></path><path id="path2" d="M187.000 30.400 C 186.864 30.620,185.874 30.800,184.800 30.800 C 183.726 30.800,182.736 30.980,182.600 31.200 C 182.464 31.420,181.733 31.600,180.976 31.600 C 180.219 31.600,179.600 31.780,179.600 32.000 C 179.600 32.220,179.161 32.400,178.624 32.400 C 178.087 32.400,177.536 32.580,177.400 32.800 C 177.264 33.020,175.723 33.200,173.976 33.200 C 172.125 33.200,170.800 33.367,170.800 33.600 C 170.800 33.835,169.408 34.000,167.424 34.000 C 165.567 34.000,163.936 34.180,163.800 34.400 C 163.664 34.620,162.494 34.800,161.200 34.800 C 159.906 34.800,158.736 34.980,158.600 35.200 C 158.464 35.420,157.373 35.600,156.176 35.600 C 154.979 35.600,154.000 35.780,154.000 36.000 C 154.000 36.220,153.291 36.400,152.424 36.400 C 151.557 36.400,150.736 36.580,150.600 36.800 C 150.464 37.020,149.733 37.200,148.976 37.200 C 148.219 37.200,147.600 37.380,147.600 37.600 C 147.600 37.820,146.880 38.000,146.000 38.000 C 145.120 38.000,144.400 38.180,144.400 38.400 C 144.400 38.620,143.860 38.800,143.200 38.800 C 142.540 38.800,142.000 38.980,142.000 39.200 C 142.000 39.420,141.640 39.600,141.200 39.600 C 140.760 39.600,140.400 39.780,140.400 40.000 C 140.400 40.220,139.860 40.400,139.200 40.400 C 138.540 40.400,138.000 40.580,138.000 40.800 C 138.000 41.020,137.640 41.200,137.200 41.200 C 136.760 41.200,136.400 41.380,136.400 41.600 C 136.400 41.820,136.080 42.000,135.688 42.000 C 135.297 42.000,134.717 42.360,134.400 42.800 C 134.083 43.240,133.575 43.600,133.272 43.600 C 132.969 43.600,132.217 44.140,131.600 44.800 C 130.983 45.460,130.191 46.000,129.840 46.000 C 129.488 46.000,129.200 46.180,129.200 46.400 C 129.200 46.620,128.840 46.800,128.400 46.800 C 127.960 46.800,127.600 46.980,127.600 47.200 C 127.600 47.420,127.161 47.600,126.624 47.600 C 126.087 47.600,125.536 47.780,125.400 48.000 C 125.264 48.220,124.803 48.400,124.376 48.400 C 123.949 48.400,123.600 48.580,123.600 48.800 C 123.600 49.020,123.240 49.200,122.800 49.200 C 122.360 49.200,122.000 49.380,122.000 49.600 C 122.000 49.820,121.728 50.000,121.395 50.000 C 121.062 50.000,120.432 50.180,119.995 50.400 C 119.558 50.620,118.842 50.980,118.405 51.200 C 117.968 51.420,117.338 51.600,117.005 51.600 C 116.672 51.600,116.400 51.780,116.400 52.000 C 116.400 52.220,116.040 52.400,115.600 52.400 C 115.160 52.400,114.800 52.580,114.800 52.800 C 114.800 53.020,114.564 53.200,114.275 53.200 C 113.987 53.200,113.364 53.560,112.892 54.000 C 112.420 54.440,111.756 54.800,111.417 54.800 C 111.078 54.800,110.800 54.950,110.800 55.132 C 110.800 55.315,110.305 55.720,109.700 56.032 C 107.158 57.344,106.822 59.250,108.800 61.140 C 110.014 62.300,110.623 66.000,109.600 66.000 C 109.072 66.000,109.072 72.674,109.600 73.000 C 109.820 73.136,110.000 73.957,110.000 74.824 C 110.000 75.691,109.820 76.400,109.600 76.400 C 109.380 76.400,109.200 76.632,109.200 76.916 C 109.200 77.200,108.480 78.228,107.600 79.200 C 106.720 80.172,106.000 81.200,106.000 81.484 C 106.000 81.768,105.820 82.000,105.600 82.000 C 105.380 82.000,105.200 82.360,105.200 82.800 C 105.200 83.240,105.020 83.600,104.800 83.600 C 104.580 83.600,104.400 83.960,104.400 84.400 C 104.400 84.840,104.220 85.200,104.000 85.200 C 103.780 85.200,103.600 85.560,103.600 86.000 C 103.600 86.440,103.420 86.800,103.200 86.800 C 102.980 86.800,102.800 87.160,102.800 87.600 C 102.800 88.040,102.620 88.400,102.400 88.400 C 102.180 88.400,102.000 88.749,102.000 89.176 C 102.000 89.603,101.820 90.064,101.600 90.200 C 101.380 90.336,101.200 91.067,101.200 91.824 C 101.200 92.581,101.020 93.200,100.800 93.200 C 100.580 93.200,100.400 94.100,100.400 95.200 C 100.400 96.300,100.220 97.200,100.000 97.200 C 99.760 97.200,99.600 98.800,99.600 101.200 C 99.600 103.600,99.440 105.200,99.200 105.200 C 98.158 105.200,98.778 109.584,100.000 110.863 C 100.660 111.554,101.200 112.322,101.200 112.571 C 101.200 112.820,101.560 113.283,102.000 113.600 C 102.440 113.917,102.800 114.497,102.800 114.888 C 102.800 115.280,102.980 115.600,103.200 115.600 C 103.420 115.600,103.600 116.039,103.600 116.576 C 103.600 117.113,103.780 117.664,104.000 117.800 C 104.220 117.936,104.400 118.577,104.400 119.224 C 104.400 119.871,104.580 120.400,104.800 120.400 C 105.020 120.400,105.200 120.940,105.200 121.600 C 105.200 122.260,105.380 122.800,105.600 122.800 C 105.820 122.800,106.000 123.340,106.000 124.000 C 106.000 124.660,106.180 125.200,106.400 125.200 C 106.620 125.200,106.800 125.740,106.800 126.400 C 106.800 127.060,106.980 127.600,107.200 127.600 C 107.420 127.600,107.600 128.140,107.600 128.800 C 107.600 129.460,107.780 130.000,108.000 130.000 C 108.220 130.000,108.400 130.540,108.400 131.200 C 108.400 131.860,108.580 132.400,108.800 132.400 C 109.020 132.400,109.200 132.760,109.200 133.200 C 109.200 133.640,109.380 134.000,109.600 134.000 C 109.820 134.000,110.000 134.360,110.000 134.800 C 110.000 135.240,110.180 135.600,110.400 135.600 C 110.620 135.600,110.800 135.873,110.800 136.207 C 110.800 136.541,111.967 137.981,113.393 139.407 C 116.424 142.438,118.178 142.902,119.100 140.917 C 119.807 139.394,119.779 139.309,118.000 137.600 C 117.120 136.754,116.400 135.779,116.400 135.431 C 116.400 135.084,116.265 134.799,116.100 134.797 C 115.741 134.793,114.800 132.856,114.800 132.120 C 114.800 131.834,114.620 131.600,114.400 131.600 C 114.180 131.600,114.000 131.240,114.000 130.800 C 114.000 130.360,113.820 130.000,113.600 130.000 C 113.380 130.000,113.200 129.651,113.200 129.224 C 113.200 128.797,113.020 128.336,112.800 128.200 C 112.580 128.064,112.400 127.513,112.400 126.976 C 112.400 126.439,112.220 126.000,112.000 126.000 C 111.780 126.000,111.600 125.280,111.600 124.400 C 111.600 123.520,111.420 122.800,111.200 122.800 C 110.980 122.800,110.800 122.536,110.800 122.213 C 110.800 121.819,111.031 121.712,111.500 121.890 C 112.501 122.269,113.200 123.043,113.200 123.771 C 113.200 124.117,113.380 124.400,113.600 124.400 C 113.820 124.400,114.000 124.760,114.000 125.200 C 114.000 125.640,114.180 126.000,114.400 126.000 C 114.620 126.000,114.800 126.360,114.800 126.800 C 114.800 127.240,114.980 127.600,115.200 127.600 C 115.420 127.600,115.600 127.960,115.600 128.400 C 115.600 128.840,115.780 129.200,116.000 129.200 C 116.220 129.200,116.400 129.560,116.400 130.000 C 116.400 130.440,116.580 130.800,116.800 130.800 C 117.020 130.800,117.200 131.036,117.200 131.325 C 117.200 131.613,117.515 132.198,117.901 132.625 C 118.286 133.051,119.034 134.255,119.563 135.300 C 120.187 136.531,120.785 137.200,121.263 137.200 C 121.668 137.200,122.000 137.380,122.000 137.600 C 122.000 137.820,122.360 138.000,122.800 138.000 C 123.240 138.000,123.600 138.170,123.600 138.378 C 123.600 138.586,124.455 138.811,125.500 138.878 C 127.240 138.990,127.411 139.093,127.527 140.100 C 127.596 140.705,127.821 141.200,128.027 141.200 C 128.232 141.200,128.400 142.280,128.400 143.600 C 128.400 144.933,128.578 146.000,128.800 146.000 C 129.029 146.000,129.200 147.200,129.200 148.800 C 129.200 151.333,129.276 151.600,130.000 151.600 C 130.440 151.600,130.800 151.780,130.800 152.000 C 130.800 152.220,131.160 152.400,131.600 152.400 C 132.040 152.400,132.400 152.580,132.400 152.800 C 132.400 153.020,132.760 153.200,133.200 153.200 C 133.640 153.200,134.000 153.380,134.000 153.600 C 134.000 153.820,134.360 154.000,134.800 154.000 C 135.240 154.000,135.600 154.180,135.600 154.400 C 135.600 154.620,136.129 154.800,136.776 154.800 C 137.423 154.800,138.064 154.980,138.200 155.200 C 138.337 155.421,140.137 155.600,142.224 155.600 C 144.475 155.600,146.000 155.438,146.000 155.200 C 146.000 154.419,147.225 154.817,148.463 156.000 C 149.749 157.229,154.800 157.867,154.800 156.800 C 154.800 155.293,159.339 156.443,161.114 158.400 C 162.891 160.358,167.600 161.520,167.600 160.000 C 167.600 159.780,168.140 159.600,168.800 159.600 C 169.460 159.600,170.000 159.420,170.000 159.200 C 170.000 158.980,170.301 158.800,170.668 158.800 C 171.334 158.800,175.600 162.998,175.600 163.652 C 175.600 163.841,176.500 164.915,177.600 166.039 C 178.700 167.162,179.600 168.261,179.600 168.480 C 179.600 168.699,180.106 169.356,180.725 169.940 C 181.343 170.523,181.967 171.315,182.112 171.700 C 182.257 172.085,182.743 172.400,183.193 172.400 C 183.643 172.400,184.323 172.560,184.705 172.756 C 185.087 172.952,186.255 173.520,187.300 174.019 C 188.345 174.518,189.200 175.077,189.200 175.263 C 189.200 175.448,189.425 175.604,189.700 175.609 C 189.975 175.614,190.650 175.970,191.200 176.400 C 192.992 177.802,194.468 177.459,196.565 175.154 L 198.427 173.109 199.160 173.954 C 199.564 174.419,200.111 174.800,200.375 174.800 C 201.825 174.800,202.927 182.180,201.600 183.000 C 201.380 183.136,201.200 183.687,201.200 184.224 C 201.200 184.761,201.020 185.200,200.800 185.200 C 200.580 185.200,200.400 185.520,200.400 185.912 C 200.400 186.303,200.040 186.883,199.600 187.200 C 199.160 187.517,198.800 188.097,198.800 188.488 C 198.800 188.880,198.620 189.200,198.400 189.200 C 198.180 189.200,198.000 189.560,198.000 190.000 C 198.000 190.440,197.820 190.800,197.600 190.800 C 197.380 190.800,197.200 191.160,197.200 191.600 C 197.200 192.040,197.020 192.400,196.800 192.400 C 196.580 192.400,196.400 192.749,196.400 193.176 C 196.400 193.603,196.220 194.064,196.000 194.200 C 195.780 194.336,195.600 194.887,195.600 195.424 C 195.600 195.961,195.420 196.400,195.200 196.400 C 194.980 196.400,194.800 196.760,194.800 197.200 C 194.800 197.640,194.980 198.000,195.200 198.000 C 195.420 198.000,195.600 198.278,195.600 198.617 C 195.600 198.956,195.960 199.620,196.400 200.092 C 196.840 200.564,197.200 201.187,197.200 201.475 C 197.200 201.764,197.380 202.000,197.600 202.000 C 197.820 202.000,198.000 202.360,198.000 202.800 C 198.000 203.240,197.820 203.600,197.600 203.600 C 197.380 203.600,197.200 203.949,197.200 204.376 C 197.200 204.803,197.020 205.264,196.800 205.400 C 196.580 205.536,196.400 206.447,196.400 207.424 C 196.400 208.401,196.580 209.200,196.800 209.200 C 197.020 209.200,197.200 209.520,197.200 209.912 C 197.200 210.303,197.560 210.883,198.000 211.200 C 198.440 211.517,198.800 212.057,198.800 212.400 C 198.800 212.743,199.160 213.283,199.600 213.600 C 200.040 213.917,200.400 214.457,200.400 214.800 C 200.400 215.143,200.760 215.683,201.200 216.000 C 201.640 216.317,202.000 216.807,202.000 217.088 C 202.000 217.369,202.720 218.341,203.600 219.248 C 204.480 220.155,205.200 221.062,205.200 221.265 C 205.200 221.468,205.560 222.020,206.000 222.492 C 206.440 222.964,206.800 223.587,206.800 223.875 C 206.800 224.164,206.980 224.400,207.200 224.400 C 207.420 224.400,207.600 224.760,207.600 225.200 C 207.600 225.640,207.780 226.000,208.000 226.000 C 208.220 226.000,208.400 226.234,208.400 226.520 C 208.400 227.256,209.341 229.193,209.700 229.197 C 209.865 229.199,210.000 229.520,210.000 229.912 C 210.000 230.303,210.360 230.883,210.800 231.200 C 211.240 231.517,211.600 232.057,211.600 232.400 C 211.600 232.743,211.960 233.283,212.400 233.600 C 212.840 233.917,213.200 234.415,213.200 234.706 C 213.200 235.437,215.026 237.200,215.782 237.200 C 216.122 237.200,216.400 237.380,216.400 237.600 C 216.400 237.820,216.749 238.000,217.176 238.000 C 217.603 238.000,218.064 238.180,218.200 238.400 C 218.336 238.620,218.887 238.800,219.424 238.800 C 219.961 238.800,220.400 238.980,220.400 239.200 C 220.400 239.420,220.940 239.600,221.600 239.600 C 222.260 239.600,222.800 239.780,222.800 240.000 C 222.800 240.220,223.160 240.400,223.600 240.400 C 224.040 240.400,224.400 240.580,224.400 240.800 C 224.400 241.020,224.760 241.200,225.200 241.200 C 225.640 241.200,226.000 241.380,226.000 241.600 C 226.000 241.820,226.349 242.000,226.776 242.000 C 227.203 242.000,227.664 242.180,227.800 242.400 C 227.936 242.620,228.487 242.800,229.024 242.800 C 229.896 242.800,230.000 242.970,230.000 244.400 C 230.000 245.280,230.180 246.000,230.400 246.000 C 230.935 246.000,230.920 251.478,230.384 251.810 C 230.134 251.964,229.993 253.699,230.029 256.173 L 230.089 260.280 231.945 259.936 C 232.965 259.747,234.700 259.340,235.800 259.031 C 241.944 257.307,253.687 255.718,264.200 255.188 C 273.102 254.740,275.519 254.451,281.600 253.113 C 286.759 251.977,296.512 249.222,296.980 248.768 C 297.189 248.566,297.618 248.400,297.933 248.400 C 298.248 248.400,298.833 248.023,299.232 247.563 C 299.655 247.076,300.159 246.851,300.441 247.025 C 300.746 247.214,300.820 247.155,300.641 246.867 C 300.473 246.595,301.825 244.956,303.979 242.820 L 307.600 239.231 307.600 237.039 C 307.600 235.834,307.780 234.736,308.000 234.600 C 308.220 234.464,308.400 233.834,308.400 233.200 C 308.400 232.566,308.580 231.936,308.800 231.800 C 309.020 231.664,309.200 231.023,309.200 230.376 C 309.200 229.729,309.380 229.200,309.600 229.200 C 309.820 229.200,310.000 228.660,310.000 228.000 C 310.000 227.340,310.180 226.800,310.400 226.800 C 310.620 226.800,310.800 226.260,310.800 225.600 C 310.800 224.940,310.620 224.400,310.400 224.400 C 310.180 224.400,310.000 223.680,310.000 222.800 C 310.000 221.920,310.180 221.200,310.400 221.200 C 310.620 221.200,310.800 220.840,310.800 220.400 C 310.800 219.960,310.980 219.600,311.200 219.600 C 311.420 219.600,311.600 219.240,311.600 218.800 C 311.600 218.360,311.780 218.000,312.000 218.000 C 312.220 218.000,312.400 217.640,312.400 217.200 C 312.400 216.760,312.580 216.400,312.800 216.400 C 313.026 216.400,313.200 215.265,313.200 213.796 C 313.200 211.449,313.318 211.069,314.400 209.937 C 315.060 209.246,315.600 208.298,315.600 207.829 C 315.600 207.360,315.960 206.717,316.400 206.400 C 316.840 206.083,317.200 205.503,317.200 205.112 C 317.200 204.720,317.380 204.400,317.600 204.400 C 317.820 204.400,318.000 204.051,318.000 203.624 C 318.000 203.197,318.180 202.736,318.400 202.600 C 318.620 202.464,318.800 200.754,318.800 198.800 C 318.800 196.846,318.620 195.136,318.400 195.000 C 318.180 194.864,318.000 194.403,318.000 193.976 C 318.000 193.268,317.699 193.200,314.583 193.200 C 311.719 193.200,311.028 193.071,310.308 192.400 C 309.836 191.960,309.213 191.600,308.925 191.600 C 308.636 191.600,308.400 191.420,308.400 191.200 C 308.400 190.980,308.175 190.796,307.900 190.791 C 307.625 190.786,306.950 190.430,306.400 190.000 C 305.850 189.570,304.995 189.214,304.500 189.209 C 304.005 189.204,303.600 189.020,303.600 188.800 C 303.600 188.580,302.891 188.400,302.024 188.400 C 301.157 188.400,300.336 188.220,300.200 188.000 C 300.064 187.780,298.613 187.600,296.976 187.600 C 295.259 187.600,294.000 187.431,294.000 187.200 C 294.000 186.980,293.460 186.800,292.800 186.800 C 292.140 186.800,291.600 186.620,291.600 186.400 C 291.600 186.180,291.060 186.000,290.400 186.000 C 289.740 186.000,289.200 185.820,289.200 185.600 C 289.200 185.380,288.840 185.200,288.400 185.200 C 287.960 185.200,287.600 185.020,287.600 184.800 C 287.600 184.580,287.240 184.400,286.800 184.400 C 286.360 184.400,286.000 184.220,286.000 184.000 C 286.000 183.780,285.726 183.600,285.391 183.600 C 284.746 183.600,280.400 179.470,280.400 178.857 C 280.400 178.659,279.680 177.755,278.800 176.848 C 277.920 175.941,277.200 174.969,277.200 174.688 C 277.200 174.407,276.840 173.917,276.400 173.600 C 275.960 173.283,275.600 172.838,275.600 172.612 C 275.599 171.906,273.740 170.000,273.053 170.000 C 272.694 170.000,272.400 169.820,272.400 169.600 C 272.400 169.380,271.860 169.200,271.200 169.200 C 270.540 169.200,270.000 169.020,270.000 168.800 C 270.000 168.559,268.332 168.400,265.795 168.400 C 263.162 168.400,261.263 168.213,260.717 167.900 C 259.495 167.200,258.210 165.925,257.893 165.099 C 257.746 164.715,257.349 164.400,257.013 164.400 C 256.676 164.400,256.400 164.220,256.400 164.000 C 256.400 163.780,256.121 163.600,255.781 163.600 C 255.440 163.600,253.945 162.385,252.459 160.900 C 250.972 159.415,249.363 157.975,248.883 157.700 C 247.830 157.096,241.200 157.010,241.200 157.600 C 241.200 157.820,240.480 158.000,239.600 158.000 C 238.720 158.000,238.000 158.180,238.000 158.400 C 238.000 158.620,237.100 158.800,236.000 158.800 C 234.900 158.800,234.000 158.980,234.000 159.200 C 234.000 159.420,233.100 159.600,232.000 159.600 C 230.900 159.600,230.000 159.420,230.000 159.200 C 230.000 158.980,229.640 158.800,229.200 158.800 C 228.760 158.800,228.400 158.620,228.400 158.400 C 228.400 158.178,227.333 158.000,226.000 158.000 C 224.667 158.000,223.600 157.822,223.600 157.600 C 223.600 157.356,221.733 157.200,218.800 157.200 C 215.867 157.200,214.000 157.356,214.000 157.600 C 214.000 157.820,213.645 158.000,213.212 158.000 C 211.252 158.000,206.000 162.382,206.000 164.018 C 206.000 165.009,205.114 166.000,204.229 166.000 C 203.883 166.000,203.600 166.180,203.600 166.400 C 203.600 166.620,203.060 166.800,202.400 166.800 C 201.740 166.800,201.200 166.620,201.200 166.400 C 201.200 166.178,200.133 166.000,198.800 166.000 C 197.467 166.000,196.400 166.178,196.400 166.400 C 196.400 167.188,188.812 166.899,188.515 166.100 C 188.372 165.715,187.928 165.109,187.528 164.753 C 187.022 164.303,186.800 163.541,186.800 162.253 C 186.800 161.234,186.620 160.400,186.400 160.400 C 186.169 160.400,186.000 159.129,186.000 157.387 C 186.000 153.986,184.439 151.600,182.213 151.600 C 181.656 151.600,181.200 151.420,181.200 151.200 C 181.200 150.980,180.761 150.800,180.224 150.800 C 179.687 150.800,179.136 150.620,179.000 150.400 C 178.864 150.180,178.223 150.000,177.576 150.000 C 176.929 150.000,176.400 149.820,176.400 149.600 C 176.400 149.380,175.500 149.200,174.400 149.200 L 172.400 149.200 172.400 147.824 C 172.400 147.067,172.580 146.336,172.800 146.200 C 173.020 146.064,173.200 145.603,173.200 145.176 C 173.200 144.749,173.380 144.400,173.600 144.400 C 173.820 144.400,174.000 144.040,174.000 143.600 C 174.000 143.160,174.180 142.800,174.400 142.800 C 174.637 142.800,174.800 141.333,174.800 139.200 L 174.800 135.600 173.600 135.600 C 172.940 135.600,172.400 135.420,172.400 135.200 C 172.400 134.980,171.762 134.800,170.982 134.800 C 169.466 134.800,167.600 136.224,167.600 137.382 C 167.600 137.722,167.420 138.000,167.200 138.000 C 166.980 138.000,166.800 138.273,166.800 138.607 C 166.800 139.850,160.800 145.200,159.405 145.200 C 159.072 145.200,158.800 145.380,158.800 145.600 C 158.800 145.820,158.260 146.000,157.600 146.000 C 156.940 146.000,156.400 146.180,156.400 146.400 C 156.400 147.434,152.548 146.826,151.968 145.700 C 151.655 145.095,150.905 144.123,150.300 143.540 C 149.695 142.956,149.200 142.191,149.200 141.840 C 149.200 141.488,149.020 141.200,148.800 141.200 C 148.580 141.200,148.400 140.480,148.400 139.600 C 148.400 138.720,148.220 138.000,148.000 138.000 C 147.780 138.000,147.600 137.655,147.600 137.233 C 147.600 136.812,147.407 136.402,147.171 136.324 C 146.615 136.138,146.638 128.002,147.195 127.445 C 147.418 127.222,147.600 126.298,147.600 125.392 C 147.600 123.677,148.887 122.000,150.203 122.000 C 150.531 122.000,150.800 121.820,150.800 121.600 C 150.800 121.380,151.149 121.200,151.576 121.200 C 152.003 121.200,152.464 121.020,152.600 120.800 C 152.736 120.580,153.287 120.400,153.824 120.400 C 154.361 120.400,154.800 120.220,154.800 120.000 C 154.800 119.780,155.779 119.600,156.976 119.600 C 158.173 119.600,159.264 119.420,159.400 119.200 C 159.536 118.980,160.976 118.800,162.600 118.800 C 164.224 118.800,165.664 118.620,165.800 118.400 C 165.936 118.180,166.757 118.000,167.624 118.000 C 168.491 118.000,169.200 117.820,169.200 117.600 C 169.200 117.380,169.740 117.200,170.400 117.200 C 171.060 117.200,171.600 117.020,171.600 116.800 C 171.600 116.580,172.500 116.400,173.600 116.400 C 174.700 116.400,175.600 116.220,175.600 116.000 C 175.600 115.780,176.598 115.600,177.818 115.600 C 180.145 115.600,182.000 116.745,182.000 118.182 C 182.000 118.522,182.180 118.800,182.400 118.800 C 182.620 118.800,182.800 119.340,182.800 120.000 C 182.800 120.660,182.980 121.200,183.200 121.200 C 183.420 121.200,183.600 121.560,183.600 122.000 C 183.600 122.440,183.780 122.800,184.000 122.800 C 184.220 122.800,184.400 123.076,184.400 123.413 C 184.400 123.749,184.715 124.142,185.100 124.285 C 185.485 124.428,186.091 124.872,186.447 125.272 C 187.693 126.674,190.800 125.930,190.800 124.229 C 190.800 123.883,190.980 123.600,191.200 123.600 C 191.431 123.600,191.600 122.347,191.600 120.641 L 191.600 117.681 189.700 115.728 C 188.655 114.654,187.545 113.286,187.232 112.688 C 186.920 112.089,186.515 111.600,186.332 111.600 C 185.769 111.600,185.966 108.777,186.571 108.171 C 186.886 107.857,187.505 107.600,187.948 107.600 C 188.391 107.600,188.864 107.420,189.000 107.200 C 189.136 106.980,189.597 106.800,190.024 106.800 C 190.451 106.800,190.800 106.620,190.800 106.400 C 190.800 106.180,191.160 106.000,191.600 106.000 C 192.040 106.000,192.401 105.865,192.403 105.700 C 192.406 105.386,194.306 104.400,194.908 104.400 C 195.478 104.400,196.400 103.305,196.400 102.629 C 196.400 102.283,196.580 102.000,196.800 102.000 C 197.020 102.000,197.200 101.722,197.200 101.383 C 197.200 101.044,197.560 100.380,198.000 99.908 C 198.440 99.436,198.800 98.633,198.800 98.125 C 198.800 97.616,198.980 97.200,199.200 97.200 C 199.420 97.200,199.600 96.300,199.600 95.200 C 199.600 94.100,199.750 93.200,199.932 93.200 C 200.115 93.200,200.520 92.707,200.832 92.105 C 201.472 90.870,204.592 87.600,205.130 87.600 C 205.323 87.600,206.046 87.060,206.737 86.400 C 207.428 85.740,208.264 85.200,208.596 85.200 C 209.046 85.200,209.200 84.736,209.200 83.382 C 209.200 81.985,209.427 81.336,210.182 80.582 C 211.149 79.615,213.200 79.219,213.200 80.000 C 213.200 80.220,214.179 80.400,215.376 80.400 C 216.573 80.400,217.664 80.220,217.800 80.000 C 217.936 79.780,218.397 79.600,218.824 79.600 C 219.251 79.600,219.600 79.420,219.600 79.200 C 219.600 78.980,219.876 78.800,220.213 78.800 C 221.128 78.800,223.600 76.154,223.600 75.174 C 223.600 72.997,218.765 70.595,217.311 72.049 C 216.778 72.582,214.800 70.825,214.800 69.818 C 214.800 69.343,214.337 69.200,212.800 69.200 C 211.700 69.200,210.800 69.020,210.800 68.800 C 210.800 68.580,210.337 68.400,209.771 68.400 C 208.845 68.400,207.600 67.614,207.600 67.029 C 207.600 66.903,209.760 66.800,212.400 66.800 C 215.333 66.800,217.200 66.644,217.200 66.400 C 217.200 66.180,218.203 66.000,219.429 66.000 C 221.922 66.000,222.800 66.565,222.800 68.171 C 222.800 68.933,223.007 69.200,223.600 69.200 C 224.040 69.200,224.400 69.380,224.400 69.600 C 224.400 69.820,225.289 70.000,226.376 70.000 C 227.463 70.000,228.464 70.180,228.600 70.400 C 228.736 70.620,229.456 70.800,230.200 70.800 C 230.944 70.800,231.664 70.620,231.800 70.400 C 231.936 70.180,232.487 70.000,233.024 70.000 C 233.806 70.000,234.000 69.795,234.000 68.971 C 234.000 67.548,233.114 66.800,231.429 66.800 C 230.643 66.800,230.000 66.620,230.000 66.400 C 230.000 66.180,229.640 66.000,229.200 66.000 C 228.760 66.000,228.400 65.820,228.400 65.600 C 228.400 65.380,228.040 65.200,227.600 65.200 C 226.978 65.200,226.800 64.933,226.800 64.000 C 226.800 63.340,226.620 62.800,226.400 62.800 C 226.180 62.800,226.000 62.528,226.000 62.195 C 226.000 60.369,223.639 58.000,221.818 58.000 C 221.038 58.000,220.400 57.820,220.400 57.600 C 220.400 57.380,219.680 57.200,218.800 57.200 C 217.920 57.200,217.200 57.020,217.200 56.800 C 217.200 56.580,216.660 56.400,216.000 56.400 C 215.340 56.400,214.800 56.220,214.800 56.000 C 214.800 55.780,214.438 55.600,213.995 55.600 C 213.552 55.600,212.832 55.420,212.395 55.200 C 211.958 54.980,211.242 54.620,210.805 54.400 C 210.368 54.180,209.726 54.000,209.377 54.000 C 208.480 54.000,207.600 53.009,207.600 52.000 C 207.600 49.947,203.501 49.115,201.692 50.800 C 200.804 51.628,198.800 51.905,198.800 51.200 C 198.800 50.980,198.080 50.800,197.200 50.800 C 196.320 50.800,195.600 50.620,195.600 50.400 C 195.600 50.180,195.240 50.000,194.800 50.000 C 194.360 50.000,194.000 49.820,194.000 49.600 C 194.000 49.380,193.280 49.200,192.400 49.200 C 191.520 49.200,190.800 49.020,190.800 48.800 C 190.800 47.864,187.901 48.391,186.947 49.500 C 185.940 50.671,185.550 54.875,186.400 55.400 C 187.253 55.927,186.876 62.306,185.928 63.397 C 185.025 64.436,181.200 64.924,181.200 64.000 C 181.200 63.780,180.840 63.600,180.400 63.600 C 179.960 63.600,179.600 63.420,179.600 63.200 C 179.600 62.980,179.364 62.800,179.075 62.800 C 178.787 62.800,178.164 62.440,177.692 62.000 C 177.220 61.560,176.596 61.200,176.305 61.200 C 176.014 61.200,175.517 60.840,175.200 60.400 C 174.672 59.667,174.165 59.600,169.135 59.600 C 165.908 59.600,163.545 59.435,163.400 59.200 C 163.264 58.980,162.713 58.800,162.176 58.800 C 161.639 58.800,161.200 58.620,161.200 58.400 C 161.200 58.180,160.840 58.000,160.400 58.000 C 159.960 58.000,159.600 57.905,159.600 57.789 C 159.600 57.289,163.236 54.000,163.789 54.000 C 164.125 54.000,164.400 53.820,164.400 53.600 C 164.400 53.380,164.760 53.200,165.200 53.200 C 165.640 53.200,166.000 53.020,166.000 52.800 C 166.000 52.580,166.529 52.400,167.176 52.400 C 167.823 52.400,168.464 52.220,168.600 52.000 C 168.736 51.780,169.467 51.600,170.224 51.600 C 170.981 51.600,171.600 51.420,171.600 51.200 C 171.600 50.980,172.500 50.800,173.600 50.800 C 174.700 50.800,175.600 50.980,175.600 51.200 C 175.600 51.420,176.140 51.600,176.800 51.600 C 177.733 51.600,178.000 51.422,178.000 50.800 C 178.000 50.360,178.180 50.000,178.400 50.000 C 178.620 50.000,178.800 49.182,178.800 48.182 C 178.800 45.512,180.030 44.400,182.982 44.400 C 184.202 44.400,185.200 44.220,185.200 44.000 C 185.200 43.780,185.740 43.600,186.400 43.600 C 187.333 43.600,187.600 43.778,187.600 44.400 C 187.600 44.840,187.780 45.200,188.000 45.200 C 188.220 45.200,188.400 45.560,188.400 46.000 C 188.400 46.533,188.667 46.800,189.200 46.800 C 189.640 46.800,190.000 46.980,190.000 47.200 C 190.000 47.422,191.067 47.600,192.400 47.600 C 193.733 47.600,194.800 47.778,194.800 48.000 C 194.800 48.522,197.878 48.522,198.200 48.000 C 198.336 47.780,199.349 47.600,200.452 47.600 C 203.582 47.600,204.927 45.216,202.500 43.970 C 201.895 43.660,201.109 43.089,200.753 42.703 C 200.397 42.316,199.632 42.000,199.053 42.000 C 198.474 42.000,198.000 41.820,198.000 41.600 C 198.000 41.380,197.460 41.200,196.800 41.200 C 196.140 41.200,195.600 41.020,195.600 40.800 C 195.600 40.580,195.161 40.400,194.624 40.400 C 194.087 40.400,193.536 40.220,193.400 40.000 C 193.264 39.780,192.623 39.600,191.976 39.600 C 191.329 39.600,190.800 39.420,190.800 39.200 C 190.800 38.980,190.260 38.800,189.600 38.800 C 188.940 38.800,188.400 38.620,188.400 38.400 C 188.400 38.180,187.860 38.000,187.200 38.000 C 186.540 38.000,186.000 37.820,186.000 37.600 C 186.000 37.380,185.561 37.200,185.024 37.200 C 184.487 37.200,183.936 37.020,183.800 36.800 C 183.664 36.580,183.923 36.400,184.376 36.400 C 184.829 36.400,185.200 36.220,185.200 36.000 C 185.200 35.771,186.400 35.600,188.000 35.600 C 189.600 35.600,190.800 35.429,190.800 35.200 C 190.800 34.980,191.520 34.800,192.400 34.800 C 193.280 34.800,194.000 34.980,194.000 35.200 C 194.000 35.420,194.540 35.600,195.200 35.600 C 195.860 35.600,196.400 35.780,196.400 36.000 C 196.400 36.220,197.012 36.400,197.759 36.400 C 198.507 36.400,200.145 36.940,201.400 37.600 C 202.655 38.260,204.023 38.800,204.441 38.800 C 204.858 38.800,205.200 38.980,205.200 39.200 C 205.200 39.420,205.740 39.600,206.400 39.600 C 207.060 39.600,207.600 39.780,207.600 40.000 C 207.600 40.220,208.140 40.400,208.800 40.400 C 209.460 40.400,210.000 40.580,210.000 40.800 C 210.000 41.020,210.476 41.200,211.057 41.200 C 211.709 41.200,212.552 41.659,213.260 42.400 C 213.891 43.060,214.636 43.600,214.915 43.600 C 215.195 43.600,215.683 43.960,216.000 44.400 C 216.317 44.840,216.814 45.200,217.105 45.200 C 217.396 45.200,218.020 45.560,218.492 46.000 C 218.964 46.440,219.587 46.800,219.875 46.800 C 220.164 46.800,220.400 46.980,220.400 47.200 C 220.400 47.420,220.760 47.600,221.200 47.600 C 221.640 47.600,222.000 47.780,222.000 48.000 C 222.000 48.220,222.360 48.400,222.800 48.400 C 223.240 48.400,223.600 48.580,223.600 48.800 C 223.600 49.037,225.067 49.200,227.200 49.200 C 231.669 49.200,231.760 48.898,228.307 45.509 C 226.881 44.109,226.025 42.992,226.307 42.898 C 226.578 42.807,226.800 42.399,226.800 41.990 C 226.800 41.582,226.980 41.136,227.200 41.000 C 227.420 40.864,227.600 39.413,227.600 37.776 L 227.600 34.800 225.041 34.800 C 222.970 34.800,222.045 34.571,220.200 33.600 C 218.945 32.940,217.498 32.400,216.983 32.400 C 216.468 32.400,215.936 32.220,215.800 32.000 C 215.664 31.780,214.663 31.600,213.576 31.600 C 212.489 31.600,211.600 31.420,211.600 31.200 C 211.600 30.958,209.867 30.800,207.200 30.800 C 204.533 30.800,202.800 30.642,202.800 30.400 C 202.800 30.147,199.941 30.000,195.024 30.000 C 190.271 30.000,187.151 30.156,187.000 30.400 M298.800 69.600 C 298.800 70.260,298.980 70.800,299.200 70.800 C 299.420 70.800,299.600 71.160,299.600 71.600 C 299.600 72.040,299.780 72.400,300.000 72.400 C 300.220 72.400,300.400 72.760,300.400 73.200 C 300.400 73.640,300.580 74.000,300.800 74.000 C 301.020 74.000,301.200 74.272,301.200 74.605 C 301.200 76.015,309.692 85.200,310.995 85.200 C 311.328 85.200,311.600 85.380,311.600 85.600 C 311.600 85.820,312.320 86.000,313.200 86.000 C 314.080 86.000,314.800 85.820,314.800 85.600 C 314.800 85.380,314.980 85.200,315.200 85.200 C 315.420 85.200,315.600 85.560,315.600 86.000 C 315.600 86.440,315.780 86.800,316.000 86.800 C 316.220 86.800,316.400 87.520,316.400 88.400 C 316.400 89.280,316.580 90.000,316.800 90.000 C 317.020 90.000,317.200 90.709,317.200 91.576 C 317.200 92.443,317.380 93.264,317.600 93.400 C 317.820 93.536,318.000 94.267,318.000 95.024 C 318.000 95.781,318.135 96.401,318.300 96.403 C 318.659 96.407,319.600 98.344,319.600 99.080 C 319.600 99.366,319.780 99.600,320.000 99.600 C 320.220 99.600,320.400 100.140,320.400 100.800 C 320.400 101.460,320.580 102.000,320.800 102.000 C 321.020 102.000,321.200 102.720,321.200 103.600 C 321.200 104.480,321.380 105.200,321.600 105.200 C 321.822 105.200,322.000 106.267,322.000 107.600 C 322.000 108.933,322.178 110.000,322.400 110.000 C 322.620 110.000,322.800 110.320,322.800 110.712 C 322.800 111.103,323.160 111.683,323.600 112.000 C 324.040 112.317,324.400 112.773,324.400 113.013 C 324.400 113.253,324.715 113.807,325.100 114.245 C 326.089 115.370,326.800 116.686,326.800 117.395 C 326.800 117.728,326.980 118.000,327.200 118.000 C 327.429 118.000,327.600 119.200,327.600 120.800 C 327.600 122.400,327.771 123.600,328.000 123.600 C 328.220 123.600,328.400 124.140,328.400 124.800 C 328.400 125.460,328.580 126.000,328.800 126.000 C 329.020 126.000,329.200 126.284,329.200 126.631 C 329.200 126.979,329.920 127.954,330.800 128.800 C 331.680 129.646,332.400 130.621,332.400 130.969 C 332.400 131.316,332.580 131.600,332.800 131.600 C 333.020 131.600,333.200 131.960,333.200 132.400 C 333.200 132.840,333.380 133.200,333.600 133.200 C 333.820 133.200,334.000 133.639,334.000 134.176 C 334.000 134.713,334.180 135.264,334.400 135.400 C 334.620 135.536,334.800 135.997,334.800 136.424 C 334.800 136.851,334.980 137.200,335.200 137.200 C 335.420 137.200,335.600 137.639,335.600 138.176 C 335.600 138.713,335.780 139.264,336.000 139.400 C 336.220 139.536,336.400 139.997,336.400 140.424 C 336.400 140.851,336.580 141.200,336.800 141.200 C 337.020 141.200,337.200 141.639,337.200 142.176 C 337.200 142.713,337.380 143.264,337.600 143.400 C 337.820 143.536,338.000 143.997,338.000 144.424 C 338.000 144.851,338.180 145.200,338.400 145.200 C 338.620 145.200,338.800 145.472,338.800 145.805 C 338.800 146.138,338.980 146.768,339.200 147.205 C 339.420 147.642,339.752 148.315,339.938 148.700 C 340.770 150.427,341.528 151.464,343.300 153.306 C 344.345 154.392,345.200 155.493,345.200 155.752 C 345.200 156.011,345.560 156.483,346.000 156.800 C 346.440 157.117,346.800 157.697,346.800 158.088 C 346.800 158.480,346.980 158.800,347.200 158.800 C 347.420 158.800,347.600 159.035,347.600 159.322 C 347.600 159.609,348.209 160.509,348.954 161.322 L 350.308 162.800 353.754 162.800 L 357.200 162.800 357.200 159.424 C 357.200 157.567,357.020 155.936,356.800 155.800 C 356.580 155.664,356.400 154.663,356.400 153.576 C 356.400 152.489,356.220 151.600,356.000 151.600 C 355.780 151.600,355.600 150.801,355.600 149.824 C 355.600 148.847,355.420 147.936,355.200 147.800 C 354.980 147.664,354.800 146.843,354.800 145.976 C 354.800 145.109,354.620 144.400,354.400 144.400 C 354.180 144.400,354.000 143.680,354.000 142.800 C 354.000 141.920,353.820 141.200,353.600 141.200 C 353.380 141.200,353.200 140.581,353.200 139.824 C 353.200 139.067,353.020 138.336,352.800 138.200 C 352.580 138.064,352.400 137.423,352.400 136.776 C 352.400 136.129,352.220 135.600,352.000 135.600 C 351.780 135.600,351.600 135.060,351.600 134.400 C 351.600 133.740,351.420 133.200,351.200 133.200 C 350.980 133.200,350.800 132.660,350.800 132.000 C 350.800 131.340,350.620 130.800,350.400 130.800 C 350.180 130.800,350.000 130.260,350.000 129.600 C 350.000 128.940,349.820 128.400,349.600 128.400 C 349.380 128.400,349.200 127.860,349.200 127.200 C 349.200 126.540,349.020 126.000,348.800 126.000 C 348.580 126.000,348.400 125.640,348.400 125.200 C 348.400 124.760,348.220 124.400,348.000 124.400 C 347.780 124.400,347.600 123.860,347.600 123.200 C 347.600 122.540,347.420 122.000,347.200 122.000 C 346.980 122.000,346.800 121.640,346.800 121.200 C 346.800 120.760,346.620 120.400,346.400 120.400 C 346.180 120.400,346.000 119.961,346.000 119.424 C 346.000 118.887,345.820 118.336,345.600 118.200 C 345.380 118.064,345.200 117.603,345.200 117.176 C 345.200 116.749,345.020 116.400,344.800 116.400 C 344.580 116.400,344.400 116.040,344.400 115.600 C 344.400 115.160,344.220 114.800,344.000 114.800 C 343.780 114.800,343.600 114.440,343.600 114.000 C 343.600 113.560,343.420 113.200,343.200 113.200 C 342.980 113.200,342.800 112.840,342.800 112.400 C 342.800 111.960,342.620 111.600,342.400 111.600 C 342.180 111.600,342.000 111.240,342.000 110.800 C 342.000 110.360,341.820 110.000,341.600 110.000 C 341.380 110.000,341.200 109.764,341.200 109.475 C 341.200 109.187,340.840 108.564,340.400 108.092 C 339.960 107.620,339.600 106.956,339.600 106.617 C 339.600 106.278,339.420 106.000,339.200 106.000 C 338.980 106.000,338.800 105.764,338.800 105.475 C 338.800 105.187,338.440 104.564,338.000 104.092 C 337.560 103.620,337.200 103.044,337.200 102.813 C 337.200 102.582,336.660 101.828,336.000 101.137 C 335.340 100.446,334.800 99.710,334.800 99.501 C 334.800 99.292,334.260 98.617,333.600 98.000 C 332.940 97.383,332.400 96.696,332.400 96.473 C 332.400 95.904,324.948 88.400,324.383 88.400 C 324.129 88.400,323.417 87.860,322.800 87.200 C 322.183 86.540,321.431 86.000,321.128 86.000 C 320.825 86.000,320.317 85.640,320.000 85.200 C 319.683 84.760,319.103 84.400,318.712 84.400 C 318.320 84.400,318.000 84.220,318.000 84.000 C 318.000 83.780,317.640 83.600,317.200 83.600 C 316.722 83.600,316.400 83.333,316.400 82.938 C 316.400 81.782,310.254 74.800,309.236 74.800 C 309.012 74.800,308.635 74.440,308.400 74.000 C 308.165 73.560,307.798 73.200,307.586 73.200 C 307.374 73.200,306.459 72.480,305.552 71.600 C 304.645 70.720,303.695 70.000,303.440 70.000 C 303.185 70.000,302.717 69.640,302.400 69.200 C 301.385 67.791,298.800 68.079,298.800 69.600 M186.000 130.400 C 186.000 130.620,184.992 130.800,183.760 130.800 C 181.824 130.800,181.378 130.952,180.460 131.925 C 179.877 132.543,179.070 133.173,178.667 133.325 C 177.130 133.902,178.264 134.600,180.932 134.718 C 182.399 134.783,183.600 135.008,183.600 135.218 C 183.600 135.444,186.123 135.600,189.776 135.600 C 193.463 135.600,196.052 135.761,196.200 136.000 C 196.336 136.220,196.977 136.400,197.624 136.400 C 198.271 136.400,198.800 136.580,198.800 136.800 C 198.800 137.020,199.340 137.200,200.000 137.200 C 200.660 137.200,201.200 137.380,201.200 137.600 C 201.200 137.820,201.560 138.000,202.000 138.000 C 202.440 138.000,202.800 138.180,202.800 138.400 C 202.800 138.620,203.160 138.800,203.600 138.800 C 204.040 138.800,204.400 138.620,204.400 138.400 C 204.400 138.180,204.760 138.000,205.200 138.000 C 205.640 138.000,206.000 137.820,206.000 137.600 C 206.000 137.380,206.360 137.200,206.800 137.200 C 207.261 137.200,207.600 136.933,207.600 136.571 C 207.600 135.763,206.637 134.800,205.829 134.800 C 205.483 134.800,205.200 134.620,205.200 134.400 C 205.200 134.180,204.880 134.000,204.488 134.000 C 204.097 134.000,203.517 133.640,203.200 133.200 C 202.883 132.760,202.303 132.400,201.912 132.400 C 201.520 132.400,201.200 132.220,201.200 132.000 C 201.200 131.780,200.480 131.600,199.600 131.600 C 198.720 131.600,198.000 131.420,198.000 131.200 C 198.000 130.967,196.675 130.800,194.824 130.800 C 193.077 130.800,191.536 130.620,191.400 130.400 C 191.264 130.180,189.993 130.000,188.576 130.000 C 187.125 130.000,186.000 130.175,186.000 130.400 M212.400 136.800 C 212.400 137.020,212.040 137.200,211.600 137.200 C 210.234 137.200,210.753 139.061,212.682 141.078 C 213.629 142.068,220.400 142.526,220.400 141.600 C 220.400 141.380,220.940 141.200,221.600 141.200 C 222.260 141.200,222.800 141.020,222.800 140.800 C 222.800 140.580,223.078 140.400,223.418 140.400 C 224.218 140.400,226.000 138.618,226.000 137.818 C 226.000 137.313,225.422 137.200,222.824 137.200 C 221.077 137.200,219.536 137.020,219.400 136.800 C 219.264 136.580,217.633 136.400,215.776 136.400 C 213.792 136.400,212.400 136.565,212.400 136.800 M76.400 186.514 C 76.400 186.797,76.760 187.029,77.200 187.029 C 77.640 187.029,78.000 186.797,78.000 186.514 C 78.000 186.231,77.640 186.000,77.200 186.000 C 76.760 186.000,76.400 186.231,76.400 186.514 M75.300 188.198 C 74.731 188.845,74.661 189.200,75.104 189.200 C 75.271 189.200,75.632 188.840,75.907 188.400 C 76.478 187.487,76.051 187.345,75.300 188.198 M75.092 195.842 C 74.931 196.002,74.800 196.409,74.800 196.747 C 74.800 197.197,74.918 197.242,75.245 196.915 C 75.490 196.670,75.621 196.263,75.537 196.010 C 75.452 195.757,75.252 195.681,75.092 195.842 M74.828 204.676 C 74.918 205.715,75.544 206.596,75.572 205.724 C 75.587 205.242,75.420 204.736,75.200 204.600 C 74.980 204.464,74.813 204.498,74.828 204.676 M85.073 229.455 C 85.453 230.035,85.831 230.306,85.914 230.058 C 85.997 229.810,85.793 229.336,85.461 229.004 C 84.516 228.059,84.313 228.295,85.073 229.455 M86.451 231.498 C 87.413 232.722,88.033 233.300,88.203 233.130 C 88.417 232.917,86.601 230.800,86.204 230.800 C 86.038 230.800,86.149 231.114,86.451 231.498 M89.230 235.100 C 89.764 235.705,90.245 236.275,90.300 236.367 C 90.355 236.458,90.483 236.451,90.584 236.349 C 90.818 236.116,89.016 234.000,88.584 234.000 C 88.406 234.000,88.697 234.495,89.230 235.100 M93.622 240.296 C 94.380 241.118,95.045 241.868,95.100 241.962 C 95.155 242.056,95.277 242.057,95.371 241.963 C 95.592 241.742,92.978 238.800,92.561 238.800 C 92.386 238.800,92.863 239.473,93.622 240.296 M56.692 240.242 C 56.531 240.402,56.405 240.908,56.412 241.367 C 56.423 242.136,56.456 242.145,56.840 241.485 C 57.288 240.716,57.173 239.760,56.692 240.242 M97.200 243.900 C 97.200 244.069,97.560 244.432,98.000 244.707 C 98.440 244.982,98.800 245.069,98.800 244.900 C 98.800 244.731,98.440 244.368,98.000 244.093 C 97.560 243.818,97.200 243.731,97.200 243.900 M101.649 247.560 C 102.612 248.418,103.471 249.052,103.559 248.968 C 103.781 248.755,100.728 246.000,100.270 246.000 C 100.065 246.000,100.685 246.702,101.649 247.560 M55.867 249.467 C 55.498 249.835,55.529 257.509,55.900 257.738 C 56.065 257.840,56.200 255.961,56.200 253.562 C 56.200 251.163,56.185 249.200,56.167 249.200 C 56.148 249.200,56.013 249.320,55.867 249.467 M109.200 254.167 C 109.200 254.588,110.405 255.728,110.621 255.512 C 110.722 255.411,110.444 255.002,110.002 254.602 C 109.561 254.203,109.200 254.007,109.200 254.167 M114.645 260.612 C 115.010 261.169,115.386 261.547,115.482 261.451 C 115.719 261.214,114.684 259.600,114.295 259.600 C 114.122 259.600,114.280 260.056,114.645 260.612 M57.206 271.500 C 57.203 271.995,57.380 272.400,57.600 272.400 C 58.101 272.400,58.101 271.976,57.600 271.200 C 57.286 270.715,57.211 270.772,57.206 271.500 M84.400 276.500 C 84.400 277.561,85.391 279.143,85.799 278.734 C 85.945 278.589,85.779 278.034,85.431 277.503 C 85.082 276.971,84.900 276.434,85.025 276.308 C 85.151 276.183,85.061 275.961,84.827 275.816 C 84.570 275.658,84.400 275.931,84.400 276.500 M58.800 278.553 C 58.800 278.883,58.980 279.264,59.200 279.400 C 59.420 279.536,59.600 279.377,59.600 279.047 C 59.600 278.717,59.420 278.336,59.200 278.200 C 58.980 278.064,58.800 278.223,58.800 278.553 M132.400 301.776 C 132.400 302.093,132.580 302.464,132.800 302.600 C 133.020 302.736,133.200 302.477,133.200 302.024 C 133.200 301.571,133.020 301.200,132.800 301.200 C 132.580 301.200,132.400 301.459,132.400 301.776 M70.493 304.400 C 70.768 304.840,71.131 305.200,71.300 305.200 C 71.469 305.200,71.382 304.840,71.107 304.400 C 70.832 303.960,70.469 303.600,70.300 303.600 C 70.131 303.600,70.218 303.960,70.493 304.400 M260.614 305.389 C 260.181 305.912,259.699 306.261,259.541 306.164 C 259.384 306.067,259.142 306.170,259.004 306.393 C 258.643 306.978,259.967 306.896,260.529 306.298 C 261.562 305.199,262.080 304.401,261.749 304.418 C 261.557 304.429,261.046 304.865,260.614 305.389 M133.500 312.512 C 133.742 315.772,134.000 315.967,134.000 312.890 C 134.000 311.547,133.846 310.352,133.657 310.235 C 133.469 310.119,133.398 311.143,133.500 312.512 M102.022 310.600 C 102.027 311.129,103.142 312.591,103.369 312.365 C 103.466 312.268,103.202 311.741,102.782 311.194 C 102.361 310.647,102.020 310.380,102.022 310.600 M254.100 311.810 C 253.605 312.339,253.200 312.882,253.200 313.016 C 253.200 313.361,255.551 311.466,255.578 311.100 C 255.619 310.547,255.008 310.841,254.100 311.810 M308.202 317.198 C 307.803 317.639,307.607 318.000,307.767 318.000 C 308.188 318.000,309.328 316.795,309.112 316.579 C 309.011 316.478,308.602 316.756,308.202 317.198 M133.654 317.200 C 133.619 317.530,133.477 318.250,133.340 318.800 C 133.148 319.572,133.202 319.697,133.577 319.349 C 133.844 319.101,133.985 318.381,133.891 317.749 C 133.797 317.117,133.690 316.870,133.654 317.200 M81.651 318.662 C 83.093 320.401,88.089 325.244,88.262 325.072 C 88.464 324.870,81.726 318.000,81.326 318.000 C 81.203 318.000,81.349 318.298,81.651 318.662 M101.693 318.800 C 102.162 319.551,102.800 319.880,102.800 319.371 C 102.800 319.073,101.725 318.000,101.425 318.000 C 101.298 318.000,101.418 318.360,101.693 318.800 M132.708 327.183 C 132.431 328.167,132.597 328.737,133.032 328.301 C 133.160 328.173,133.201 327.648,133.124 327.134 L 132.984 326.200 132.708 327.183 M93.200 329.500 C 93.200 329.669,93.560 330.032,94.000 330.307 C 94.440 330.582,94.800 330.669,94.800 330.500 C 94.800 330.331,94.440 329.968,94.000 329.693 C 93.560 329.418,93.200 329.331,93.200 329.500 M96.400 331.825 C 96.400 332.125,97.473 333.200,97.771 333.200 C 98.280 333.200,97.951 332.562,97.200 332.093 C 96.760 331.818,96.400 331.698,96.400 331.825 M293.029 332.229 C 292.605 332.538,292.336 332.869,292.430 332.963 C 292.524 333.057,292.948 332.881,293.371 332.571 C 293.795 332.262,294.064 331.931,293.970 331.837 C 293.876 331.743,293.452 331.919,293.029 332.229 M117.693 334.000 C 117.968 334.440,118.331 334.800,118.500 334.800 C 118.669 334.800,118.582 334.440,118.307 334.000 C 118.032 333.560,117.669 333.200,117.500 333.200 C 117.331 333.200,117.418 333.560,117.693 334.000 M99.600 334.167 C 99.600 334.588,100.805 335.728,101.021 335.512 C 101.122 335.411,100.844 335.002,100.402 334.602 C 99.961 334.203,99.600 334.007,99.600 334.167 M102.800 336.695 C 102.800 337.084,104.414 338.119,104.651 337.882 C 104.747 337.786,104.369 337.410,103.812 337.045 C 103.256 336.680,102.800 336.522,102.800 336.695 M105.200 338.219 C 105.200 338.705,106.423 339.659,106.858 339.514 C 107.106 339.431,106.835 339.053,106.255 338.673 C 105.675 338.293,105.200 338.089,105.200 338.219 M118.493 342.800 C 118.768 343.240,119.131 343.600,119.300 343.600 C 119.469 343.600,119.382 343.240,119.107 342.800 C 118.832 342.360,118.469 342.000,118.300 342.000 C 118.131 342.000,118.218 342.360,118.493 342.800 M114.000 343.895 C 114.000 344.284,115.614 345.319,115.851 345.082 C 115.947 344.986,115.569 344.610,115.012 344.245 C 114.456 343.880,114.000 343.722,114.000 343.895 M128.616 345.573 C 128.471 345.808,127.993 346.000,127.553 346.000 C 127.113 346.000,126.864 346.180,127.000 346.400 C 127.136 346.620,127.372 346.794,127.524 346.787 C 128.042 346.763,129.342 345.609,129.111 345.378 C 128.984 345.251,128.761 345.339,128.616 345.573 M120.800 346.843 C 120.800 347.086,120.530 347.182,120.200 347.055 C 119.870 346.929,119.600 346.999,119.600 347.213 C 119.600 347.426,119.960 347.600,120.400 347.600 C 120.844 347.600,121.200 347.333,121.200 347.000 C 121.200 346.670,121.110 346.400,121.000 346.400 C 120.890 346.400,120.800 346.599,120.800 346.843 M131.600 359.300 C 131.600 359.465,131.949 359.600,132.376 359.600 C 132.803 359.600,133.236 359.465,133.338 359.300 C 133.440 359.135,133.091 359.000,132.562 359.000 C 132.033 359.000,131.600 359.135,131.600 359.300 " stroke="none" fill="#54944c" fill-rule="evenodd"></path><path id="path3" d="M267.500 255.095 C 268.655 255.176,270.545 255.176,271.700 255.095 C 272.855 255.014,271.910 254.948,269.600 254.948 C 267.290 254.948,266.345 255.014,267.500 255.095 M255.505 255.883 C 256.002 255.979,256.722 255.975,257.105 255.875 C 257.487 255.775,257.080 255.696,256.200 255.701 C 255.320 255.705,255.007 255.787,255.505 255.883 " stroke="none" fill="#5c944c" fill-rule="evenodd"></path><path id="path4" d="M269.107 255.490 C 269.826 255.579,270.906 255.577,271.507 255.486 C 272.108 255.395,271.520 255.322,270.200 255.324 C 268.880 255.326,268.388 255.401,269.107 255.490 M256.105 256.287 C 256.714 256.379,257.614 256.377,258.105 256.282 C 258.597 256.187,258.100 256.111,257.000 256.114 C 255.900 256.117,255.497 256.195,256.105 256.287 " stroke="none" fill="#70a438" fill-rule="evenodd"></path></g></svg>